<?xml version="1.0" encoding="UTF-8" standalone="no"?>
<svg
   width="17"
   height="16"
   viewBox="0 0 17 16"
   fill="none"
   version="1.1"
   id="svg4"
   sodipodi:docname="retry.svg"
   inkscape:version="1.2.1 (9c6d41e410, 2022-07-14)"
   xmlns:inkscape="http://www.inkscape.org/namespaces/inkscape"
   xmlns:sodipodi="http://sodipodi.sourceforge.net/DTD/sodipodi-0.dtd"
   xmlns="http://www.w3.org/2000/svg"
   xmlns:svg="http://www.w3.org/2000/svg">
  <defs
     id="defs8" />
  <sodipodi:namedview
     id="namedview6"
     pagecolor="#ffffff"
     bordercolor="#000000"
     borderopacity="0.25"
     inkscape:showpageshadow="2"
     inkscape:pageopacity="0.0"
     inkscape:pagecheckerboard="0"
     inkscape:deskcolor="#d1d1d1"
     showgrid="false"
     inkscape:zoom="53.125"
     inkscape:cx="8.5176471"
     inkscape:cy="8"
     inkscape:window-width="1920"
     inkscape:window-height="1053"
     inkscape:window-x="0"
     inkscape:window-y="27"
     inkscape:window-maximized="1"
     inkscape:current-layer="svg4" />
  <path
     fill-rule="evenodd"
     clip-rule="evenodd"
     d="M4.52266 2.96431C5.61589 2.09979 6.99866 1.58325 8.5 1.58325C11.8187 1.58325 14.549 4.1027 14.8825 7.33325H16.1723C16.4336 7.33325 16.5894 7.62474 16.4445 7.84236L14.4388 10.8541C14.3094 11.0485 14.024 11.0485 13.8945 10.8541L11.8888 7.84236C11.7439 7.62474 11.8997 7.33325 12.161 7.33325H13.3719C13.0465 4.93318 10.9893 3.08325 8.5 3.08325C7.34828 3.08325 6.29092 3.47832 5.45308 4.14088C5.3969 4.18531 5.34851 4.22104 5.31295 4.24649C5.2951 4.25925 5.28032 4.26955 5.2692 4.27718L5.25529 4.28665L5.25051 4.28986L5.24868 4.29108L5.24791 4.29159L5.24756 4.29182L5.24739 4.29193L5.24731 4.29198L4.83341 3.66669L5.24723 4.29203C4.90181 4.52063 4.43648 4.42591 4.20788 4.08049C3.97976 3.73576 4.07362 3.27161 4.41734 3.04253L4.42021 3.04057L4.44013 3.02657C4.45912 3.01298 4.488 2.99172 4.52266 2.96431ZM3.62815 8.66659H4.83901C5.10027 8.66659 5.2561 8.3751 5.11118 8.15748L3.10551 5.14574C2.97603 4.95131 2.69064 4.95131 2.56116 5.14574L0.555488 8.15748C0.410566 8.3751 0.566399 8.66659 0.827661 8.66659H2.11755C2.45103 11.8971 5.18129 14.4166 8.5 14.4166C10.0683 14.4166 11.5069 13.853 12.6215 12.9181C12.9388 12.6519 12.9803 12.1789 12.7141 11.8615C12.4479 11.5441 11.9749 11.5027 11.6575 11.7689C10.803 12.4856 9.70281 12.9166 8.5 12.9166C6.01071 12.9166 3.9535 11.0667 3.62815 8.66659Z"
     fill="#0DBD8B"
     id="path2"
     style="fill:#000000;fill-opacity:1" />
</svg>
